<svg xmlns="http://www.w3.org/2000/svg" width="64" height="64" viewBox="0 0 64 64">
  <!-- Modify - fillet / chamfer / draft -->
  <path d="M16 14 H40 C42 14 46 16 46 20 V46 C46 50 44 52 40 52 H16 C12 52 12 48 12 44 V18 C12 14 12 14 16 14 Z" fill="#f5c211" stroke="#2e3436" stroke-width="2.5"/>
  <path d="M16 14 H40 C42 14 46 16 46 20" fill="none" stroke="#2e3436" stroke-width="2.5" stroke-linecap="round"/>
  <!-- fillet indication -->
  <path d="M12 32 Q12 38 18 38" fill="none" stroke="#1a5fb4" stroke-width="3" stroke-linecap="round"/>
  <path d="M40 14 Q46 14 46 22" fill="none" stroke="#1a5fb4" stroke-width="3" stroke-linecap="round"/>
  <circle cx="48" cy="48" r="11" fill="#1a5fb4" stroke="#2e3436" stroke-width="2.2"/>
  <path d="M44 48 L52 48 M48 44 L48 52" stroke="white" stroke-width="2" opacity="0" />
  <path d="M44 45 L48 48 L44 51" fill="none" stroke="white" stroke-width="2.5" stroke-linecap="round" stroke-linejoin="round"/>
  <path d="M52 45 L48 48 L52 51" fill="none" stroke="white" stroke-width="2.5" stroke-linecap="round" stroke-linejoin="round"/>
</svg>